<?xml version="1.0" encoding="UTF-8"?><svg id="Layer_2" xmlns="http://www.w3.org/2000/svg" viewBox="0 0 574.67 104.14"><defs><style>.cls-1{fill:#f8d1be;}.cls-2{fill:#f3a584;}.cls-3{fill:#f3b69e;}.cls-4{fill:#f3ad8f;}.cls-5{fill:#ee895c;}.cls-6{fill:#ee895d;}.cls-7{fill:#ee8a5e;}.cls-8{fill:#ee8e62;}.cls-8,.cls-9,.cls-10,.cls-11{stroke:#ef9165;stroke-miterlimit:10;stroke-width:2px;}.cls-9{fill:#ee9065;}.cls-10{fill:#ef9268;}.cls-11{fill:#ef9166;}</style></defs><g id="Layer_1-2"><path class="cls-6" d="m44.58,44.19c-7.69,8.03-11.9,17.39-11.86,28.51.05,11.09,4.1,20.52,11.81,28.45-8.84,4.89-24.66,4.44-35.33-6.37-10.84-10.99-12.4-27.89-3.13-40.47,9.82-13.32,26.24-15.86,38.5-10.12Z"/><path class="cls-6" d="m60.03,2.95c11.45-5.41,26.53-3.5,36.5,7.68,9.8,10.99,11.19,28.18.82,40.82-9.12,11.11-24.57,14.5-37.31,8.58.28-.33.51-.63.77-.92,1.89-2.1,3.74-4.23,5.21-6.67,2.84-4.72,4.77-9.77,5.49-15.24,1.58-12.02-1.59-22.68-9.36-31.98-.64-.76-1.35-1.46-2.12-2.27Z"/><path class="cls-6" d="m.09,30.08c.22-5.25,1.69-10.13,4.38-14.63,2.94-4.93,6.98-8.79,11.99-11.55C20.53,1.64,24.94.39,29.64.07c6.04-.41,11.7.89,16.93,3.74,6.12,3.34,10.73,8.21,13.66,14.59,2.38,5.18,3.19,10.64,2.74,16.28-.23,2.82-.95,5.56-2.01,8.19-.2.5-.39,1-.63,1.65-7.86-7.73-17.26-11.76-28.27-11.95-.33,0-.67,0-1,0-10.9.22-20.23,4.14-28.1,11.85C.86,40,.01,35.39.06,30.58c0-.17.02-.33.03-.5Z"/><path class="cls-6" d="m44.4,59.72c8.03,7.83,17.59,11.95,28.7,11.92,11.05-.03,20.58-4.13,28.49-11.91,5.39,11.06,3.59,25.83-6.85,35.67-11.77,11.08-29.18,11.51-41.46,1.79-11.12-8.81-15.02-24.62-8.88-37.46Z"/><path class="cls-7" d="m335.44,34.78h-13.13v-6.65h21.36c.08.12.16.19.17.25.19,3.38.16,6.75-1.38,9.87-2.24,4.56-5.88,7.63-10.66,9.2-6.84,2.24-13.26,1.24-18.96-3.23-3.78-2.97-6.03-6.9-6.74-11.69-1.19-8.02,3.36-15.26,10.01-18.74,7.42-3.89,17.05-2.43,22.73,3.42.87.89,1.8,1.72,2.43,2.98-2.15,1.24-4.28,2.48-6.53,3.78-2.44-3.31-5.6-5.24-9.71-5.37-2.28-.07-4.36.65-6.22,1.92-4.7,3.23-6.18,8.44-4.69,12.97,1.87,5.69,7.26,8.5,12.27,8.04,4.9-.46,8.61-3.97,9.05-6.76Z"/><path class="cls-6" d="m202.14,23.71v-2.57h7.16v26.59h-7.08c-.04-.71-.08-1.42-.12-2.25-.25.11-.41.14-.52.23-3.08,2.52-6.63,3.11-10.45,2.47-6.15-1.03-9.62-5.65-10.47-10.9-.57-3.52-.16-6.88,1.5-10.04,2.05-3.89,5.32-6.05,9.67-6.62,2-.26,3.97-.13,5.91.48,1.33.42,2.5,1.1,3.55,2.02.2.18.44.31.85.6Zm-7.14,3.1c-3.73-.12-7.51,2.65-7.49,7.6.03,4.95,3.25,7.56,7.58,7.59,4.38.03,7.22-2.96,7.31-7.4.11-5.31-4.04-7.89-7.41-7.8Z"/><path class="cls-7" d="m489.48,23.71v-2.38c.88-.3,5.6-.37,7.19-.12v26.53h-7.1v-2.22c-.28.07-.46.07-.57.15-1.98,1.66-4.26,2.49-6.84,2.68-2.47.18-4.8-.21-7.02-1.25-3.87-1.81-6.02-4.98-6.92-9.05-.78-3.56-.46-7.03,1.11-10.32,2.03-4.24,5.47-6.56,10.12-7.12,2.99-.36,5.8.11,8.34,1.8.53.36,1.02.79,1.7,1.32Zm.29,10.98c.04-1.83-.22-3.6-1.43-5.04-2.09-2.49-4.79-3.41-7.94-2.58-2.97.78-4.74,2.8-5.32,5.79-.16.8-.14,1.66-.08,2.48.16,2.12.98,3.9,2.77,5.2,1.12.81,2.36,1.27,3.68,1.4,2.91.28,5.46-.45,7.21-2.98.89-1.28,1.12-2.75,1.09-4.27Z"/><path class="cls-7" d="m355.72,37.28c.29,1.49.81,2.73,2.08,3.34,2.06.99,4.18,1.8,6.58,1.51,1.82-.22,3.34-.96,4.68-2.13.92-.8.9-.82,2-.19,1.44.82,2.87,1.65,4.36,2.5-.16.32-.23.56-.38.73-2.28,2.75-5.12,4.57-8.68,5.23-3.79.7-7.42.07-10.82-1.56-4.29-2.06-6.5-5.65-6.98-10.35-.19-1.83-.17-3.64.28-5.44,1.06-4.2,3.59-7.16,7.58-8.82,2.2-.92,4.5-1.58,6.91-1.46,5.46.29,9.76,2.56,12.35,7.53,1.1,2.11,1.41,4.41,1.38,6.77-.04,2.77.21,2.33-2.32,2.34-5.83.03-11.66,0-17.49,0-.45,0-.9,0-1.53,0Zm13.52-5.22c-.21-2.59-3.22-5.28-7.29-4.97-3.11.24-5.92,2.57-5.95,4.97h13.23Z"/><path class="cls-7" d="m421.24,37.37c.55,1.39,1.02,2.7,2.33,3.32,2.19,1.04,4.44,1.89,6.96,1.39,1.69-.33,3.12-1.1,4.39-2.23.21-.19.43-.38.74-.65,1.8,1.02,3.59,2.03,5.53,3.13-.32.44-.54.82-.83,1.14-2.13,2.32-4.64,3.98-7.78,4.66-4.36.94-8.48.19-12.29-1.93-3.67-2.04-5.47-5.43-6.04-9.53-.3-2.18-.17-4.31.45-6.41,1.14-3.81,3.57-6.53,7.22-8.09,2.27-.97,4.64-1.66,7.14-1.53,5.11.25,9.2,2.36,11.91,6.81,1.13,1.85,1.59,3.91,1.75,6.04.06.87.02,1.74,0,2.62-.02,1.07-.08,1.14-1.12,1.16-.83.02-1.66.03-2.5.03-5.58,0-11.16-.01-16.74-.01-.32,0-.64.04-1.14.08Zm.41-5.33h13.28c-.19-2.7-3.18-4.92-6.57-4.96-3.32-.05-6.46,2.25-6.71,4.96Z"/><path class="cls-7" d="m250.93,37.54c.29.64.5,1.33.89,1.91.34.5.8,1.01,1.33,1.26,2.15,1.02,4.35,1.82,6.84,1.39,1.71-.3,3.11-1.1,4.41-2.17.25-.21.49-.43.82-.72,1.81,1.02,3.6,2.04,5.47,3.1-.43.94-1.11,1.59-1.8,2.22-3.56,3.29-7.77,4.53-12.54,3.77-1.59-.25-3.18-.65-4.68-1.22-3.89-1.46-6.35-4.31-7.45-8.28-.81-2.94-.85-5.91.12-8.83,1.37-4.15,4.2-6.9,8.34-8.26,1.33-.44,2.72-.78,4.12-.95,6.41-.81,13.97,3.2,15.28,11.05.21,1.26.22,2.56.27,3.84.02.48-.11.97-.19,1.61-1.04.01-2.03.03-3.01.04-.23-.07-.46-.19-.69-.2-2.12-.02-4.24-.02-6.36,0-.23,0-.46.13-.69.2-1.83,0-3.67,0-5.5,0-.83-.33-1.66-.33-2.49,0-.78,0-1.55-.01-2.33-.02-.05.09-.09.18-.14.26Zm.28-5.52c2.42.25,12.52.14,13.3-.14-.58-2.92-3.54-4.94-7.06-4.8-3.11.12-5.93,2.32-6.24,4.94Z"/><path class="cls-7" d="m537.82,20.57c5.83.23,10.46,2.97,13.15,8.6,3.06,6.4-.07,14.08-5.76,17.21-2.2,1.21-4.55,2-6.99,2.07-8.42.22-15.11-5.57-15.26-13.72-.09-4.94,2.18-8.67,6.06-11.52,2.5-1.84,5.37-2.56,8.81-2.64Zm7.1,13.99c-.04-4.9-3.93-7.63-7.45-7.58-3.92.05-7.51,3.08-7.42,7.62.09,4.8,3.35,7.57,7.36,7.65,4.41.08,7.4-3.59,7.51-7.69Z"/><path class="cls-6" d="m400.61,47.74c0-.62,0-1.11,0-1.6,0-4.82,0-9.64,0-14.46,0-1.2-.23-2.3-1.02-3.25-1.4-1.68-3.28-1.96-5.22-1.55-1.98.42-3.3,1.78-3.79,3.74-.26,1.03-.29,2.14-.29,3.21-.03,4.11,0,8.22,0,12.34,0,.49,0,.98,0,1.56h-7.05c-.24-.82-.35-24.22-.12-26.56h7.11v2.13c.33-.17.56-.22.72-.36,1.71-1.5,3.8-2.02,5.97-2.27,2.06-.24,4.06.09,5.97.94,2.52,1.12,3.86,3.2,4.61,5.73.26.87.43,1.78.49,2.69.34,5.81.36,11.62.11,17.43,0,.08-.06.15-.11.31h-7.37Z"/><path class="cls-5" d="m138.81,18.92h-10.17c-.39-.97-.43-4.84-.1-6.69h28.35v6.64h-10.27c-.04.55-.09.98-.09,1.42,0,8.64.01,17.27.02,25.91,0,.49,0,.97,0,1.54h-7.73v-28.82Z"/><path class="cls-6" d="m518.46,22.1c0,1,0,2,0,3-.27.25-.27.5,0,.75-.02.33-.03.65-.06,1.1-1.75.26-3.49-.02-5.27.18-.03.32-.09.6-.09.87,0,3.28-.04,6.56.02,9.83.02.94.22,1.89.46,2.81.29,1.09,1.11,1.63,2.22,1.67.78.03,1.56,0,2.42,0v5.92c-.29.08-.56.21-.84.23-2.25.15-4.49.18-6.71-.27-2.87-.58-4.55-2.45-4.61-5.38-.09-4.73-.06-9.47-.08-14.21,0-.49-.03-.97-.05-1.56h-3.06c-.33-.91-.43-4.17-.21-6.41.49-.02,1.01-.06,1.53-.07.53-.01,1.07,0,1.76,0v-7.08h7.12c.07,2.32.15,4.62.22,7.06,1.7.02,3.35.03,5,.05.08.5.16,1,.23,1.5Z"/><path class="cls-7" d="m241.86,21.36c-.13.34-.22.71-.39,1.03-4.49,8.62-8.98,17.24-13.48,25.86-.09.17-.19.34-.4.71-4.8-9.3-9.51-18.42-14.28-27.67.4-.07.67-.15.93-.15,1.96-.01,3.92.05,5.87-.03.91-.04,1.34.34,1.7,1.1,1.68,3.57,3.39,7.13,5.09,10.69.18.37.37.73.64,1.26.23-.36.43-.6.56-.87,1.75-3.63,3.52-7.25,5.22-10.91.42-.91.91-1.33,1.96-1.29,2.12.1,4.24.06,6.37.08.07.06.14.11.21.17Z"/><path class="cls-6" d="m456.28,24.2c1.1-1.22,2.33-2.32,3.94-2.75,1.54-.41,3.15-.59,4.7-.87.35.89.44,4.9.18,6.92-.7.1-1.42.21-2.15.29-3.79.43-7.06,3.41-7,7.72.04,3.61.01,7.23.01,10.84,0,.44,0,.89,0,1.39h-7.22c-.05-.32-.15-.63-.15-.94-.01-8.39-.02-16.78-.02-25.18,0-.12.05-.24.08-.35.81-.26,5.84-.31,7.33-.04-.05.91-.11,1.84-.17,2.78.04.38.22.37.47.17Z"/><path class="cls-5" d="m285.58,11.13c.02.91.07,1.83.07,2.74,0,10.84,0,21.69,0,32.53,0,.41,0,.82,0,1.32h-7.22V10.92c1.15,0,2.3-.01,3.45,0,1.16,0,2.33.03,3.49.04.07.06.14.12.21.18Z"/><path class="cls-6" d="m558.09,47.71v-26.58h7.22v3.28c.99-.8,1.76-1.62,2.7-2.15.96-.54,2.05-.9,3.12-1.16,1.06-.26,2.18-.31,3.27-.45.3.86.37,5.28.09,6.85-.82.11-1.68.16-2.52.34-2.8.61-5.03,2-6.05,4.8-.35.95-.5,2.02-.51,3.04-.06,3.57-.02,7.14-.02,10.71,0,.41,0,.82,0,1.33h-7.31Z"/><path class="cls-6" d="m177.48,27.61c-1.91,0-3.7.45-5.35,1.44-2.59,1.54-3.62,3.92-3.64,6.8-.03,3.49,0,6.98,0,10.47,0,.45,0,.89,0,1.42h-7.16v-26.58h7.11v3.25c1.45-1.1,2.52-2.46,4.15-2.86,1.61-.4,3.25-.64,4.88-.95.08.08.17.15.25.23,0,2.18,0,4.37,0,6.55-.08.08-.16.15-.24.23Z"/><path class="cls-10" d="m199.81,70.01c-.66,2.3-1.32,4.59-1.98,6.89-.55,1.94-1.07,3.89-1.66,5.82-.21.67-.19,1.57-1.32,1.56-1.06,0-1.19-.78-1.4-1.51-1.03-3.56-2.06-7.12-3.09-10.69-.41-1.4-.81-2.81-1.22-4.22,1.48-.29,1.48-.29,1.82.9.99,3.52,1.96,7.04,2.96,10.55.22.77.49,1.53,1.07,2.3,1.34-4.63,2.68-9.26,4.04-13.92h1.92c1.34,4.62,2.69,9.29,4.04,13.96.13,0,.26-.02.38-.03.36-1.23.72-2.45,1.07-3.68.86-3.04,1.73-6.09,2.55-9.14.24-.89.64-1.37,1.72-1.09-.02.29.02.61-.06.89-1.4,4.82-2.82,9.63-4.23,14.44-.18.6-.31,1.16-1.1,1.2-.86.05-1.15-.14-1.45-1.19-.9-3.15-1.78-6.3-2.67-9.44-.34-1.2-.68-2.4-1.02-3.6-.11,0-.22,0-.34-.01Z"/><path class="cls-9" d="m521.04,67.69h1.29c.37,1.3.49,11.97.19,16.03-1.42.89-1.67.86-2.71-.62-2.7-3.84-5.37-7.7-8.06-11.55-.3-.43-.62-.85-.94-1.27-.11.02-.23.05-.34.07v13.73c-1.51.12-1.58.11-1.59-1.05-.03-2.46,0-4.91,0-7.37,0-2.07,0-4.15,0-6.22,0-.53.05-1.07.08-1.57,1.78-.44,1.77-.43,2.65.84,2.74,3.95,5.49,7.89,8.24,11.83.25.35.53.68.96,1.24.09-.56.18-.88.18-1.21,0-3.71-.02-7.42-.02-11.14,0-.58.04-1.16.07-1.75Z"/><path class="cls-9" d="m353.22,67.71c2.44-.22,4.77-.11,7.06.43,1.54.36,2.51,1.46,2.84,3.07.31,1.52-.27,2.66-1.4,3.6-.24.2-.48.38-.85.67.37.22.58.36.81.48,1.65.87,2.33,2.28,2.13,4.07-.21,1.93-1.38,3.24-3.19,3.79-2.38.72-4.85.47-7.4.39v-16.5Zm1.59,15.05c1.79-.08,3.37-.04,4.92-.26,1.41-.2,2.42-1.41,2.52-2.64.1-1.27-.94-2.97-2.23-3.31-1.68-.44-3.4-.63-5.21-.25v6.47Zm0-8.02c1.61.19,3.11.19,4.59-.26,1.39-.42,2.02-1.17,2.02-2.41,0-1.44-.68-2.45-2.09-2.74-1.49-.31-3-.2-4.52-.08v5.48Z"/><path class="cls-9" d="m304.92,67.66c2.39.09,4.81,0,7.18.33,2.78.38,4.84,2.06,5.84,4.69,1.19,3.12.85,6.14-1.43,8.71-.7.79-1.64,1.46-2.6,1.89-2.93,1.33-6.05,1.02-9.3.91,0-5.52,0-10.9,0-16.27.11-.08.22-.17.33-.25Zm1.34,14.95c1.72,0,3.26.15,4.76-.03,3.06-.36,5.64-1.86,5.95-6.03.22-2.96-1.15-5.59-3.94-6.72-2.17-.87-4.46-.69-6.77-.57v13.34Z"/><path class="cls-9" d="m432.18,84.43c-4.49.21-8.43-3.33-8.52-8.45-.08-4.71,3.7-8.65,8.27-8.6,5.83.07,8.67,3.49,8.76,8.65.09,5.48-4.37,8.63-8.5,8.4Zm-.18-15.79c-1.61.13-3.35.59-4.7,2.08-2.16,2.37-2.67,5.06-1.62,8.03.98,2.77,3.2,4.2,5.95,4.45,2.61.24,4.92-.62,6.37-3.13,1-1.73,1.13-3.53.91-5.42-.41-3.4-3.19-5.93-6.9-6.01Z"/><path class="cls-11" d="m175.19,75.89c.09,5.11-3.63,8.62-8.52,8.61-4.57-.01-8.38-3.13-8.49-8.71-.09-4.55,3.81-8.45,8.28-8.42,6.11.03,8.72,4.17,8.72,8.53Zm-1.57-.25c.13-2.31-1.01-4.18-2.84-5.65-2.53-2.04-7.06-1.61-9.21.94-2.19,2.6-2.28,5.37-1.16,8.27,1.01,2.61,3.29,3.8,5.93,4,2.32.18,4.39-.63,5.85-2.65,1.04-1.44,1.44-3.03,1.43-4.91Z"/><path class="cls-11" d="m258.13,76.31c1.56,2.62,3.04,5.11,4.57,7.68-1.14.51-1.66.04-2.08-.68-1-1.69-2-3.38-3-5.08q-1.23-2.07-3.94-1.65v7.39c-1.36.31-1.59.24-1.59-.67-.02-5.08,0-10.15.03-15.23,0-.09.1-.18.22-.4,2.22-.15,4.49-.12,6.74.4,1.59.37,3.28,1.74,3.18,3.82-.11,2.33-.93,3.51-3.19,4.14-.25.07-.49.14-.92.26Zm-4.45-7.06c-.02,1.96-.08,3.73.03,5.57,1.52,0,2.82.03,4.12,0,1.56-.05,2.66-1.06,2.77-2.45.12-1.49-.97-2.94-2.53-3.08-1.39-.13-2.8-.03-4.4-.03Z"/><path class="cls-9" d="m492.96,82.68v1.51h-10.04c-.44-1.2-.6-13.3-.22-16.44h9.86c.04.35.1.75.17,1.36-2.87.17-5.63.03-8.47.11v5.53c.5.03,1.02.09,1.54.09,1.75,0,3.5-.02,5.25,0,1.02.02,1.02.06,1,1.48h-7.75v6.35h8.65Z"/><path class="cls-8" d="m288.65,84.15h-10.18v-16.35c.27-.06.53-.17.78-.17,2.68,0,5.36-.02,8.04,0,1.19.01,1.19.04,1.03,1.5h-8.29c-.2,1.91-.06,3.68-.06,5.67,2.63.04,5.17.07,7.75.1.04.57.06.93.1,1.48h-7.8v6.18c.46.04.92.12,1.39.12,2.13.02,4.27-.01,6.4.02,1.02.02,1.02.06.83,1.43Z"/><path class="cls-9" d="m235.23,74.91v1.46h-7.76v6.34c2.14,0,4.2,0,6.26,0,.49,0,.99-.03,1.47,0,1,.08,1.03.14.85,1.46h-10.29c-.05-5.52,0-10.93-.03-16.51,2.46,0,4.73,0,7.01,0,.71,0,1.42.04,2.13.06.48.01.88.14.89.71.01.57-.38.73-.87.73-1.64.01-3.28.02-4.92.02-.81,0-1.61,0-2.51,0v5.55c2.53.25,5.13-.02,7.77.16Z"/><path class="cls-11" d="m537.54,84.06c.43-1.02.84-2.01,1.27-2.99,1.74-4,3.49-8,5.23-11.99.09-.2.18-.4.26-.6.2-.47.47-.84,1.07-.85.66,0,.97.36,1.2.91.79,1.91,1.61,3.82,2.41,5.73,1.17,2.76,2.35,5.52,3.51,8.28.2.48.34,1,.53,1.57-.95.3-1.52.11-1.86-.69-.38-.9-.78-1.8-1.14-2.71-.28-.69-.71-.99-1.49-.97-2.18.05-4.37.04-6.56,0-.77-.01-1.23.23-1.49.96-.34.92-.78,1.8-1.13,2.72-.33.86-.89,1-1.81.64Zm7.97-14.5c-1.08,1.57-3.59,7.65-3.66,8.79h7.22c-1.21-2.99-2.35-5.8-3.56-8.79Z"/><path class="cls-9" d="m457.94,84.16h-1.2v-16.45c2.42-.18,4.76-.2,7.02.45,2.02.58,3.13,2.27,2.96,4.18-.17,1.97-1.64,3.52-3.69,3.78-1.5.19-3.02.27-4.69.42-.06,2.47-.12,4.95-.18,7.43-.1.04-.17.1-.22.19Zm.41-14.9v5.63c1.55-.07,3.02-.03,4.45-.23,1.48-.21,2.33-1.27,2.32-2.53-.02-1.37-1.07-2.72-2.46-2.85-1.39-.13-2.8-.03-4.31-.03Z"/><path class="cls-8" d="m133.75,67.52c2.08.16,4.21.2,6.29.54,2.07.33,3.28,1.93,3.3,3.89.01,2.08-1.17,3.62-3.28,4.11-.84.2-1.72.26-2.59.32-.75.05-1.51.01-2.49.01-.02,2.67-.04,5.2-.06,7.65-.98.4-1.52.23-1.52-.69.02-5.12.07-10.24.11-15.36,0-.05.05-.09.25-.47Zm1.17,7.44c1.79-.14,3.42-.22,5.03-.41.87-.1,1.49-.67,1.72-1.55.44-1.65-.64-3.51-2.32-3.71-1.43-.17-2.9-.04-4.43-.04v5.7Z"/><path class="cls-11" d="m391.44,67.8c-1.02,1.6-1.93,3.01-2.83,4.43-.18.28-.34.57-.54.82-1.91,2.33-2.93,4.91-2.48,8,.12.79-.03,1.64-.17,2.44-.05.28-.38.66-.65.72-.54.12-.76-.29-.76-.8,0-1.64-.05-3.28,0-4.91.04-.97-.2-1.79-.75-2.6-1.5-2.21-2.94-4.47-4.39-6.72-.26-.4-.48-.82-.77-1.33,1.03-.42,1.64-.12,2.13.68,1.18,1.9,2.39,3.79,3.59,5.67.23.36.49.69.83,1.18.35-.41.65-.7.88-1.04,1.23-1.87,2.43-3.76,3.66-5.63.69-1.04.71-1.03,2.25-.91Z"/><path class="cls-8" d="m569.49,84.08c-1.39.14-1.46.11-1.48-1.04-.03-2.13,0-4.26,0-6.39,0-2.4-.01-4.81,0-7.21,0-.53.05-1.07.07-1.7h1.42v16.34Z"/><path class="cls-3" d="m261.39,37.29c.23-.07.46-.2.69-.2,2.12-.02,4.24-.02,6.36,0,.23,0,.46.13.69.2-.23.07-.47.19-.7.19-2.11.01-4.23.01-6.34,0-.23,0-.47-.12-.7-.19Z"/><path class="cls-3" d="m253.4,37.29c.83-.32,1.66-.33,2.49,0-.83.31-1.66.32-2.49,0Z"/><path class="cls-3" d="m518.46,22.1c-.08-.5-.16-1-.23-1.5.61.42.51.95.23,1.5Z"/><path class="cls-1" d="m31.05,32.57c.33,0,.67,0,1,0-.33.3-.67.3-1,0Z"/><path class="cls-3" d="m518.46,25.84c-.27-.25-.27-.5,0-.75,0,.25,0,.5,0,.75Z"/><path class="cls-3" d="m456.28,24.2c-.25.2-.43.22-.47-.17.16.06.31.11.47.17Z"/><path class="cls-3" d="m250.93,37.54c.05-.09.09-.18.14-.26-.05.09-.09.18-.14.26Z"/><path class="cls-4" d="m304.92,67.66c-.11.08-.22.17-.33.25.11-.08.22-.17.33-.25Z"/><path class="cls-1" d="m177.48,27.61c.08-.08.16-.16.24-.23-.08.08-.16.15-.24.23Z"/><path class="cls-2" d="m241.86,21.36c-.07-.06-.14-.11-.21-.17.07.06.14.11.21.17Z"/><path class="cls-1" d="m177.72,20.82c-.08-.08-.17-.15-.25-.23.08.08.17.15.25.23Z"/><path class="cls-2" d="m285.58,11.13c-.07-.06-.14-.12-.21-.18.07.06.14.12.21.18Z"/><path class="cls-2" d="m454.94,84.16c.05-.09.13-.15.22-.19-.07.06-.15.13-.22.19Z"/></g></svg>