<svg width="2000" height="540" viewBox="0 0 2000 540" fill="none" xmlns="http://www.w3.org/2000/svg">
<g clip-path="url(#clip0_4_468)">
<path d="M995.988 241.833C994.568 241.593 979.428 238.323 979.618 237.523C980.088 235.543 980.658 233.203 981.188 230.543C981.458 229.213 981.738 227.803 982.028 226.333C982.298 224.853 982.568 223.303 982.858 221.683C983.958 215.213 985.038 207.683 985.878 199.523C985.928 199.023 985.978 198.533 986.028 198.023C986.148 196.813 986.268 195.593 986.388 194.353C986.488 193.123 986.588 191.873 986.688 190.613C986.908 188.103 987.048 185.543 987.218 182.963C987.258 182.363 987.288 181.763 987.328 181.173L987.458 178.323C987.488 177.543 987.528 176.753 987.558 175.963C987.648 174.203 987.658 172.433 987.718 170.663C987.738 169.773 987.768 168.883 987.788 167.993C987.788 167.103 987.808 166.213 987.808 165.323C987.828 162.913 987.848 160.503 987.808 158.093C987.788 154.973 987.688 151.863 987.598 148.763C987.548 146.753 987.418 144.763 987.338 142.773C987.218 139.883 986.968 137.013 986.798 134.183C986.768 133.803 986.738 133.443 986.698 133.073C986.488 130.793 986.338 128.523 986.098 126.313C986.078 126.083 986.048 125.863 986.028 125.633C985.128 116.513 983.938 108.053 982.788 100.783C982.178 97.1525 981.618 93.8125 981.118 90.8325C980.648 87.8425 980.178 85.2325 979.878 83.0225C979.768 82.2225 979.668 81.3625 979.998 80.6925C980.418 79.7925 981.498 79.4525 982.488 79.2425C984.418 78.8325 986.408 78.6125 988.438 78.5925C988.588 78.5925 989.128 79.8025 990.008 82.0125C990.438 83.1225 990.988 84.4725 991.558 86.0525C992.108 87.6425 992.728 89.4525 993.408 91.4625C994.078 93.4725 994.728 95.6925 995.468 98.0825C996.178 100.473 996.858 103.053 997.608 105.763C998.968 111.213 1000.43 117.253 1001.61 123.683C1001.65 123.913 1001.7 124.153 1001.74 124.383C1002.22 126.773 1002.59 129.223 1003.02 131.713C1003.14 132.443 1003.27 133.163 1003.37 133.893C1003.42 134.213 1003.47 134.543 1003.52 134.873C1003.66 135.813 1003.79 136.763 1003.93 137.723C1004.38 140.633 1004.7 143.583 1005.08 146.553C1005.36 148.943 1005.58 151.353 1005.83 153.773C1006.13 157.323 1006.45 160.893 1006.63 164.433C1006.76 166.503 1006.89 168.583 1006.95 170.633C1007.02 172.503 1007.12 174.363 1007.15 176.213C1007.19 178.063 1007.22 179.893 1007.26 181.703C1007.28 182.343 1007.26 182.983 1007.26 183.613C1007.28 188.563 1007.22 193.353 1007.07 197.883C1007.05 198.343 1007.04 198.793 1007.02 199.243C1006.36 217.493 1004.48 231.423 1003.95 235.073C1002.91 242.013 1002.53 242.913 995.968 241.863L995.988 241.833Z" fill="#BFA17E"/>
<path d="M1047.86 72.7225C1048.74 75.3925 1049.25 80.3025 1049.23 83.4125C1049.18 84.8025 1047.77 85.4925 1046.52 84.7425C1044.81 83.7125 1042.04 82.2525 1038.47 80.8325C1034.89 79.4125 1030.48 78.0225 1025.3 77.1325C1019.47 76.1225 1014.7 75.9525 1011.39 76.0025C1008.08 76.0625 1006.23 76.3525 1006.23 76.3525C1011.96 81.6425 1016.35 88.9625 1018.21 96.5625C1020.06 104.163 1019.3 111.993 1015.33 118.273C1014.66 119.263 1012.7 117.203 1010.19 114.063C1008.96 112.483 1007.53 110.653 1006.06 108.773C1004.59 106.903 1003.11 104.993 1001.6 103.293C1000.33 101.843 998.988 100.443 997.648 99.1525C996.298 97.8525 994.898 96.6625 993.608 95.5825C992.308 94.5025 991.098 93.5525 990.028 92.7525C988.938 91.9525 987.998 91.3025 987.298 90.8225C985.768 92.8325 984.268 95.0725 982.818 97.4125C982.098 98.5825 981.388 99.7825 980.698 100.993C979.988 102.203 979.278 103.423 978.558 104.643C977.858 105.853 977.158 107.073 976.458 108.273C975.728 109.463 975.008 110.643 974.298 111.803C973.578 112.953 972.858 114.073 972.138 115.143C971.398 116.223 970.648 117.253 969.898 118.223C968.868 119.223 967.258 121.723 965.478 123.253C963.708 124.783 961.878 125.343 960.568 122.573C958.228 116.183 956.398 109.583 955.998 103.093C955.628 96.5925 956.528 90.2325 959.938 84.0825C953.188 85.7525 947.328 88.4425 941.948 91.5325C939.248 93.0825 936.698 94.7325 934.128 96.4425C931.568 98.1525 929.068 99.9125 926.578 101.663C924.728 102.913 922.598 100.353 922.488 98.3925C922.218 94.9125 922.388 91.9725 922.768 89.4925C922.968 88.2525 923.268 87.0925 923.608 86.0425C923.938 84.9925 924.338 84.0325 924.788 83.1325C926.638 79.5125 929.258 77.0525 931.878 74.6625C935.378 71.4725 939.108 69.3325 943.058 67.6625C947.008 66.0025 951.138 64.8425 955.218 63.5825C955.218 63.5825 954.668 63.0325 953.558 62.2025C952.998 61.7925 952.298 61.3125 951.448 60.8025C950.578 60.3025 949.558 59.7725 948.388 59.2625C943.768 57.1725 936.578 55.3725 927.018 56.1525C924.068 56.3925 918.468 57.7125 918.268 55.3225C918.178 53.9625 918.698 52.5325 919.758 51.0325C920.818 49.5425 922.398 48.0125 924.328 46.5725C928.208 43.6925 933.508 41.1725 939.128 40.2625C946.968 39.0025 953.638 39.9425 959.268 41.9725C960.688 42.4725 962.058 43.0325 963.378 43.6325C964.668 44.2425 965.918 44.8925 967.128 45.5625C969.548 46.8925 971.818 48.2925 973.918 49.6125C973.918 49.6125 974.028 48.8925 974.368 47.7025C974.728 46.5125 975.238 44.8925 976.158 43.0425C977.058 41.2025 978.358 39.1425 980.118 37.1425C981.868 35.1525 984.138 33.2125 987.108 31.6425C990.878 29.6425 994.558 28.5525 998.048 28.1725C1001.53 27.7825 1004.87 28.0825 1007.82 28.7825C1013.72 30.1825 1018.44 33.1725 1020.73 34.9825C1021.69 35.7225 1021.79 37.0625 1020.91 37.5325C1017.59 39.3025 1011.03 40.7325 1007.15 44.4925C1003.42 48.0425 1001.4 51.0825 1000.32 53.2525C999.788 54.3325 999.448 55.2025 999.268 55.8025C999.088 56.4025 999.038 56.7225 999.038 56.7225C1001.57 53.2625 1011.31 50.4325 1021.82 51.8925C1024.45 52.2625 1027.13 52.9025 1029.75 53.8825C1032.36 54.8525 1034.86 56.1625 1037.22 57.8425C1038.39 58.6825 1039.54 59.6225 1040.59 60.6525C1041.63 61.6825 1042.62 62.8125 1043.53 64.0525C1044.43 65.2825 1045.29 66.6225 1046.01 68.0625C1046.72 69.5025 1047.33 71.0425 1047.84 72.6925L1047.86 72.7225Z" fill="#5CBA74"/>
<path d="M934.058 46.2326C940.008 45.3326 945.948 44.5626 951.978 46.6726C953.818 47.3026 955.588 48.0026 957.368 48.7826C959.128 49.5726 960.878 50.4426 962.438 51.5026C964.388 52.8426 966.218 54.3526 968.058 55.9626C969.838 57.5826 971.598 59.3026 973.498 61.0226C974.108 60.1126 975.078 58.9126 975.748 57.5526C976.458 56.1026 977.268 54.7126 978.168 53.3826C979.048 52.0526 979.988 50.7926 981.008 49.5626C983.038 47.1126 985.338 44.8226 987.748 42.6226C993.818 37.0126 1001.55 33.9526 1010.55 33.1826C1012.76 32.9926 1015.09 32.9226 1018.51 35.8126C1013.08 35.2626 1008.21 35.5526 1003.81 36.6226C999.408 37.6926 995.568 39.5226 992.078 42.0826C988.658 44.5926 985.538 47.4026 982.778 50.6126C981.418 52.2126 980.058 53.9326 978.828 55.7626C977.588 57.5926 976.468 59.5326 975.378 61.6126C977.718 61.1326 979.148 60.8626 980.568 60.5526C989.258 58.6226 998.038 56.9726 1007.35 57.3826C1010.38 57.5126 1013.41 57.9026 1016.32 58.5626C1019.24 59.2226 1022.1 60.1426 1024.91 61.3526C1027.74 62.5626 1030.44 64.0526 1033.07 65.8426C1034.39 66.7326 1035.68 67.7026 1036.97 68.7426C1038.25 69.7826 1039.45 70.8926 1040.67 72.0826C1041.71 73.1026 1042.6 74.3026 1043.37 75.6326C1044.14 76.9526 1044.74 78.3926 1045.28 79.8926C1044.76 79.4926 1044.15 79.1726 1043.73 78.6826C1042.2 76.8626 1040.55 75.1926 1038.88 73.6626C1037.2 72.1326 1035.52 70.7526 1033.76 69.5026C1030.21 67.0026 1026.58 65.0626 1022.8 63.6226C1015.19 60.7426 1007.3 59.8526 999.038 60.4726C992.248 60.9726 985.588 62.0026 978.218 62.9626C979.808 64.0226 981.368 65.0626 982.888 66.0726C984.388 67.1226 985.858 68.1426 987.298 69.1626C990.228 71.2126 992.948 73.3026 995.638 75.5126C996.328 76.0826 996.988 76.6726 997.628 77.2826C998.248 77.8926 998.838 78.5326 999.408 79.1826C1000.55 80.4926 1001.59 81.8726 1002.58 83.3026C1003.54 84.7326 1004.4 86.2126 1005.24 87.7226L1006.47 90.0026C1006.86 90.7626 1007.23 91.5326 1007.61 92.3026C1008.35 93.8226 1009.1 95.3526 1009.81 96.8926C1010.49 98.4326 1011.12 100.003 1011.67 101.583C1011.95 102.373 1012.2 103.173 1012.43 103.983C1012.64 104.793 1012.82 105.603 1012.97 106.433C1013.27 108.083 1013.45 109.763 1013.44 111.493L1010.48 104.683C1007.86 98.7726 1005.36 92.8426 1002.15 87.1726C996.098 76.3926 985.808 69.5926 975.098 64.1426C974.828 64.0026 974.468 64.0526 973.918 63.9926C972.308 65.6926 971.838 67.9026 971.688 70.1526C971.488 73.1626 971.318 76.1326 971.038 79.1126C970.788 82.0726 970.528 85.0226 970.278 87.9826C969.518 96.8326 968.508 105.593 966.908 114.193C966.678 115.503 966.188 116.773 965.798 118.063L964.668 118.003C964.628 117.403 964.518 116.783 964.448 116.173C964.368 115.563 964.318 114.963 964.428 114.393C965.768 107.753 966.748 101.053 967.538 94.2526C968.348 87.4526 968.798 80.5826 969.008 73.6226C969.038 72.0926 969.318 70.5726 969.628 68.9726C969.918 67.3726 970.268 65.6826 970.538 63.7926C966.138 65.6226 961.918 67.5726 957.938 69.6626C953.948 71.7626 950.218 73.9826 946.668 76.4326C939.608 81.3026 933.588 86.8926 928.598 93.6226C929.018 92.5326 929.518 91.4526 930.038 90.4026C930.558 89.3626 931.138 88.3426 931.808 87.3526C933.148 85.3726 934.818 83.5126 936.888 81.8626C941.478 78.2326 944.668 75.2426 949.218 72.1226C953.778 68.9826 959.878 65.6326 970.118 61.0426C964.258 54.8826 957.648 50.0026 948.938 48.1226C940.098 46.3026 932.808 48.9826 925.378 51.9826C925.228 51.7426 925.088 51.4926 924.938 51.2526C926.568 50.1626 928.198 49.0626 929.818 47.9426L934.088 46.2526L934.058 46.2326Z" fill="#48AB60"/>
<path d="M941.348 278.202C940.218 278.152 928.098 277.122 928.148 276.522C928.618 270.452 928.498 259.793 926.448 247.293C926.398 246.913 926.328 246.533 926.258 246.153C925.618 242.463 924.898 238.612 923.968 234.702C923.868 234.252 923.758 233.793 923.648 233.343C923.488 232.623 923.308 231.902 923.118 231.192C922.968 230.602 922.808 230.012 922.658 229.412C922.488 228.752 922.308 228.092 922.138 227.422C921.948 226.762 921.758 226.103 921.568 225.433C921.178 224.113 920.818 222.762 920.398 221.442C919.808 219.652 919.288 217.853 918.658 216.073C918.258 214.923 917.858 213.773 917.458 212.623C917.048 211.473 916.608 210.342 916.178 209.202C915.898 208.462 915.628 207.732 915.348 207.002C915.058 206.272 914.758 205.552 914.468 204.832C914.028 203.782 913.628 202.722 913.178 201.692C912.728 200.662 912.268 199.632 911.828 198.612C911.708 198.342 911.598 198.072 911.478 197.812C910.748 196.162 909.958 194.562 909.218 192.972C909.138 192.812 909.068 192.653 908.988 192.483C905.838 185.983 902.518 180.093 899.488 175.093C898.028 172.563 896.508 170.333 895.278 168.273C893.948 166.273 892.838 164.462 891.898 162.952C891.548 162.412 891.188 161.823 891.188 161.243C891.188 160.463 891.838 159.913 892.478 159.483C893.698 158.633 895.038 157.913 896.458 157.323C896.558 157.283 897.368 158.003 898.748 159.373C899.408 160.083 900.208 160.942 901.148 161.952C901.608 162.462 902.108 163.003 902.638 163.573C903.148 164.153 903.668 164.782 904.228 165.442C908.708 170.692 914.408 178.332 919.858 187.392C919.958 187.552 920.058 187.723 920.148 187.883C921.118 189.583 922.118 191.333 923.118 193.093L923.948 194.662C924.068 194.892 924.198 195.132 924.328 195.362C924.688 196.042 925.048 196.722 925.418 197.412C926.488 199.512 927.558 201.652 928.588 203.832C929.388 205.592 930.228 207.352 930.988 209.142C931.548 210.462 932.108 211.773 932.658 213.093C933.208 214.413 933.708 215.742 934.228 217.062C934.858 218.602 935.398 220.173 935.948 221.713C936.458 223.123 936.958 224.522 937.408 225.922C937.858 227.322 938.348 228.703 938.758 230.093C938.908 230.583 939.048 231.072 939.188 231.552C939.468 232.502 939.748 233.432 940.028 234.362C940.278 235.292 940.528 236.222 940.778 237.142C941.018 238.062 941.268 238.972 941.508 239.862C941.728 240.762 941.938 241.652 942.148 242.532C942.238 242.892 942.318 243.233 942.408 243.593C945.718 257.763 946.438 269.012 946.558 271.972C946.588 272.672 946.618 273.302 946.628 273.862C946.628 274.422 946.608 274.913 946.568 275.343C946.488 276.203 946.318 276.823 945.978 277.263C945.298 278.133 943.968 278.282 941.358 278.192L941.348 278.202Z" fill="#BFA27E"/>
<path d="M925.388 140.403C925.928 141.123 926.578 142.193 927.198 143.303C927.828 144.413 928.318 145.603 928.668 146.533C928.978 147.363 928.378 148.023 927.538 147.793C926.368 147.483 924.588 147.093 922.358 146.883C920.098 146.683 917.408 146.673 914.478 147.093C911.178 147.563 908.598 148.363 906.858 149.013C905.118 149.673 904.208 150.183 904.208 150.183C904.738 150.423 905.278 150.683 905.798 150.963C906.308 151.253 906.818 151.563 907.318 151.893C908.318 152.553 909.318 153.273 910.248 154.073C912.058 155.693 913.748 157.543 915.008 159.583C916.338 161.603 917.218 163.803 917.758 165.983C918.208 168.193 918.318 170.403 917.788 172.523C917.698 172.863 917.298 172.813 916.678 172.503C916.058 172.193 915.228 171.623 914.228 170.933C913.238 170.243 912.138 169.423 910.998 168.593C909.828 167.783 908.638 166.963 907.528 166.243C906.588 165.623 905.548 165.093 904.578 164.593C903.588 164.103 902.638 163.663 901.728 163.293C899.888 162.563 898.328 162.063 897.398 161.793C896.978 163.193 896.648 164.693 896.368 166.233C896.048 167.793 895.768 169.383 895.498 170.943C895.198 172.523 894.878 174.093 894.548 175.573C894.198 177.063 893.778 178.503 893.328 179.783C892.978 180.483 892.498 182.113 891.808 183.213C891.118 184.323 890.228 184.903 889.048 183.643C886.698 180.623 884.628 177.413 883.208 174.103C881.798 170.773 881.158 167.233 881.648 163.343C878.458 165.573 875.978 168.113 873.748 170.753C872.628 172.083 871.568 173.433 870.548 174.783C869.538 176.133 868.518 177.473 867.498 178.833C866.718 179.813 865.238 178.923 864.838 178.033C864.668 177.623 864.508 177.223 864.378 176.823C864.248 176.433 864.128 176.053 864.008 175.693C863.778 174.973 863.628 174.293 863.528 173.633C863.318 172.343 863.308 171.203 863.468 170.113C863.748 167.973 864.628 166.173 865.498 164.383C866.608 162.053 868.058 160.113 869.688 158.373C871.318 156.633 873.138 155.113 874.918 153.553C874.918 153.553 874.518 153.383 873.778 153.193C873.028 153.023 871.908 152.863 870.518 152.853C869.818 152.853 869.068 152.883 868.238 153.003C867.398 153.123 866.508 153.313 865.568 153.593C863.678 154.143 861.638 154.993 859.408 156.423C858.048 157.273 855.668 159.353 855.108 158.243C855.028 158.083 854.968 157.913 854.918 157.723C854.868 157.543 854.838 157.353 854.818 157.153C854.788 156.743 854.818 156.283 854.898 155.783C855.068 154.773 855.468 153.613 856.038 152.383C857.188 149.933 859.038 147.263 861.478 145.363C863.178 144.033 864.888 143.083 866.608 142.423C867.458 142.093 868.328 141.823 869.168 141.643C870.008 141.463 870.838 141.343 871.668 141.263C873.328 141.113 874.978 141.143 876.508 141.323C878.048 141.493 879.578 141.703 880.978 141.953C880.978 141.953 880.948 141.843 880.898 141.653C880.858 141.463 880.788 141.173 880.708 140.823C880.558 140.113 880.408 139.103 880.368 137.893C880.338 135.443 880.598 132.263 882.658 129.123C883.968 127.143 885.498 125.693 887.158 124.673C888.808 123.663 890.588 123.083 892.348 122.803C894.078 122.543 895.758 122.593 897.248 122.773C898.728 122.953 900.018 123.253 900.878 123.543C901.598 123.773 902.038 124.523 901.718 124.983C900.508 126.703 897.538 128.923 896.588 131.893C896.358 132.593 896.178 133.243 896.038 133.863C895.888 134.483 895.758 135.063 895.668 135.593C895.488 136.663 895.428 137.563 895.428 138.293C895.428 139.743 895.688 140.503 895.688 140.503C895.878 139.273 897.048 137.763 898.908 136.373C900.758 134.993 903.328 133.733 906.268 133.113C907.738 132.803 909.308 132.643 910.938 132.703C912.568 132.763 914.288 133.023 915.938 133.573C917.598 134.123 919.308 134.923 920.898 136.053C921.688 136.623 922.458 137.263 923.218 137.983C923.968 138.703 924.718 139.503 925.358 140.403H925.388Z" fill="#48A174"/>
<path d="M860.538 149.712C861.838 148.732 863.178 147.752 864.598 146.992C866.018 146.232 867.548 145.672 869.298 145.502C869.818 145.452 870.358 145.402 870.898 145.362C871.428 145.332 871.958 145.322 872.488 145.322C873.558 145.322 874.628 145.392 875.688 145.582C878.298 146.112 880.868 147.162 883.588 148.252C883.688 147.622 883.898 146.762 883.908 145.872C883.908 145.402 883.938 144.922 883.968 144.462C883.998 144.002 884.038 143.542 884.088 143.082C884.198 142.172 884.348 141.262 884.548 140.362C884.948 138.562 885.518 136.782 886.108 135.052C887.648 130.592 890.658 127.112 895.068 124.712C895.608 124.412 896.168 124.132 896.928 124.032C897.678 123.942 898.678 124.012 899.968 124.492C899.228 124.702 898.518 124.932 897.848 125.192C897.168 125.452 896.518 125.742 895.908 126.042C894.678 126.652 893.588 127.352 892.618 128.142C890.678 129.712 889.228 131.602 888.178 133.782C887.148 135.922 886.288 138.192 885.718 140.552C885.418 141.742 885.228 142.932 885.028 144.222C884.848 145.492 884.728 146.802 884.688 148.162C885.778 147.402 886.448 146.952 887.098 146.482C891.098 143.582 895.228 140.822 900.148 139.172C901.758 138.632 903.418 138.262 905.128 138.052C905.978 137.952 906.858 137.892 907.728 137.872C908.588 137.872 909.468 137.902 910.358 137.982C912.128 138.152 913.968 138.492 915.818 139.042C917.638 139.602 919.498 140.352 921.398 141.312C922.988 142.142 924.418 143.532 925.738 145.112C925.358 144.962 924.958 144.882 924.608 144.672C923.328 143.872 922.068 143.172 920.828 142.572C919.588 141.972 918.298 141.482 917.068 141.072C915.828 140.662 914.618 140.352 913.418 140.122C912.198 139.902 910.998 139.762 909.818 139.712C905.138 139.482 900.718 140.592 896.608 142.602C893.218 144.262 890.028 146.202 886.468 148.272C887.538 148.532 888.578 148.782 889.598 149.022C890.628 149.272 891.658 149.522 892.628 149.822C893.608 150.102 894.588 150.402 895.568 150.712C896.058 150.872 896.548 151.022 897.028 151.192C897.498 151.372 897.978 151.542 898.448 151.722C899.418 152.092 900.358 152.552 901.268 153.062C902.178 153.572 903.008 154.172 903.838 154.802C904.658 155.432 905.488 156.092 906.238 156.812C906.998 157.522 907.738 158.252 908.478 158.992C909.218 159.712 909.908 160.472 910.598 161.232C911.278 161.992 911.968 162.772 912.578 163.582C913.778 165.222 914.868 166.972 915.478 168.962C914.998 168.392 914.528 167.812 914.038 167.252L912.548 165.562C910.018 162.612 907.358 159.712 904.488 157.072C903.068 155.842 901.618 154.782 900.078 153.892C898.508 153.022 896.928 152.292 895.278 151.712C893.608 151.142 891.938 150.702 890.268 150.342C888.558 150.012 886.848 149.772 885.158 149.582C884.988 149.562 884.818 149.662 884.518 149.742C884.088 151.002 884.318 152.322 884.778 153.552C885.098 154.362 885.338 155.222 885.618 156.042C885.878 156.872 886.168 157.682 886.408 158.512L887.138 160.992L887.508 162.212L887.848 163.452C889.238 168.362 890.358 173.252 891.028 178.142C891.118 178.892 891.088 179.662 891.108 180.412L890.488 180.572C890.228 179.942 889.808 179.332 889.728 178.672C889.618 177.722 889.458 176.802 889.328 175.852L889.118 174.432L888.858 173.022C888.678 172.082 888.508 171.122 888.308 170.182L887.658 167.342C887.458 166.382 887.168 165.462 886.918 164.512C886.658 163.562 886.408 162.602 886.098 161.672L885.198 158.822L884.178 155.992C883.888 155.142 883.658 154.302 883.448 153.372C883.238 152.452 883.058 151.442 882.738 150.382C879.098 154.222 875.878 158.152 873.288 162.122C871.988 164.102 870.798 166.162 869.798 168.202C869.548 168.712 869.308 169.222 869.068 169.742C868.828 170.272 868.598 170.792 868.378 171.322C867.938 172.382 867.548 173.432 867.208 174.502C867.258 173.272 867.418 172.022 867.768 170.742C868.098 169.482 868.588 168.232 869.348 166.952C871.038 164.122 872.008 161.982 873.698 159.352C875.388 156.712 877.708 153.692 881.858 148.992C879.658 147.952 877.358 147.212 875.128 146.792C873.978 146.612 872.818 146.522 871.668 146.552C870.518 146.572 869.358 146.702 868.158 147.012C865.768 147.602 863.888 148.722 862.238 150.102C860.588 151.482 859.158 153.132 857.738 154.822C857.618 154.732 857.488 154.662 857.368 154.582C857.898 153.622 858.418 152.662 858.928 151.682L860.558 149.742L860.538 149.712Z" fill="#41956C"/>
<path d="M1076.46 257.533C1075.82 257.463 1072.06 256.893 1068.48 256.233C1064.9 255.583 1061.51 254.833 1061.58 254.493C1061.95 252.833 1062.31 250.873 1062.88 248.693C1063.16 247.603 1063.4 246.443 1063.74 245.243C1064.07 244.043 1064.42 242.793 1064.79 241.483C1066.33 236.283 1068.38 230.363 1071.05 224.153C1071.21 223.773 1071.38 223.403 1071.55 223.013C1071.96 222.103 1072.34 221.163 1072.79 220.243C1073.23 219.323 1073.68 218.393 1074.13 217.453C1074.36 216.983 1074.58 216.513 1074.81 216.043C1075.04 215.573 1075.29 215.113 1075.53 214.643C1076.02 213.713 1076.51 212.763 1077.01 211.823C1077.23 211.383 1077.46 210.943 1077.71 210.513L1078.87 208.463C1079.19 207.903 1079.51 207.333 1079.83 206.763C1080.55 205.503 1081.34 204.263 1082.09 203.003C1082.48 202.383 1082.85 201.743 1083.25 201.123C1083.66 200.503 1084.06 199.893 1084.47 199.273L1086.11 196.763L1087.85 194.313C1089.31 192.173 1090.9 190.123 1092.46 188.063C1093.48 186.733 1094.56 185.453 1095.6 184.163C1096.35 183.213 1097.15 182.313 1097.94 181.403C1098.73 180.493 1099.51 179.603 1100.29 178.703C1100.51 178.473 1100.72 178.243 1100.93 178.013C1101.59 177.313 1102.24 176.613 1102.89 175.913C1103.54 175.223 1104.17 174.523 1104.84 173.873C1104.98 173.733 1105.11 173.603 1105.25 173.463C1110.67 167.973 1116.15 163.243 1121.16 159.483C1123.71 157.633 1126.03 155.953 1128.26 154.603C1129.36 153.923 1130.38 153.273 1131.37 152.713C1132.37 152.163 1133.3 151.673 1134.16 151.233C1134.78 150.913 1135.46 150.593 1136.15 150.623C1137.09 150.663 1137.84 151.343 1138.43 151.973C1139.58 153.203 1140.61 154.533 1141.49 155.913C1141.55 156.003 1140.84 156.693 1139.51 157.873C1139.17 158.163 1138.8 158.483 1138.4 158.843C1137.99 159.193 1137.54 159.573 1137.08 160.003C1136.15 160.843 1135.08 161.803 1133.9 162.863C1132.75 163.953 1131.49 165.143 1130.14 166.423C1128.81 167.723 1127.42 169.143 1125.95 170.633C1123.09 173.683 1119.95 177.063 1116.91 180.833C1116.8 180.963 1116.68 181.103 1116.58 181.233C1115.4 182.603 1114.32 184.083 1113.17 185.543C1112.84 185.973 1112.5 186.393 1112.18 186.833C1112.04 187.033 1111.9 187.233 1111.75 187.423C1111.34 187.993 1110.92 188.563 1110.5 189.133C1109.2 190.863 1108.01 192.693 1106.76 194.503C1106.25 195.223 1105.79 195.983 1105.31 196.723C1104.83 197.473 1104.36 198.213 1103.88 198.963C1103.18 200.063 1102.54 201.193 1101.87 202.313L1100.87 203.983C1100.56 204.553 1100.24 205.113 1099.93 205.673C1099.21 207.003 1098.44 208.303 1097.78 209.633C1097.17 210.843 1096.55 212.043 1095.95 213.233C1095.38 214.433 1094.82 215.633 1094.26 216.813C1094.06 217.233 1093.86 217.643 1093.68 218.063C1093.33 218.873 1092.98 219.683 1092.63 220.483C1092.29 221.283 1091.92 222.073 1091.63 222.863C1091.32 223.653 1091.01 224.443 1090.71 225.213C1090.41 225.983 1090.09 226.743 1089.84 227.513C1089.73 227.823 1089.63 228.123 1089.52 228.433C1087.33 234.543 1085.82 240.013 1084.89 244.263C1084.76 244.793 1084.65 245.303 1084.56 245.803C1084.46 246.293 1084.37 246.763 1084.28 247.223C1084.11 248.123 1083.93 248.933 1083.81 249.663C1083.58 251.103 1083.41 252.173 1083.31 252.803C1083.09 253.993 1083 254.923 1082.79 255.643C1082.59 256.363 1082.32 256.863 1081.88 257.193C1081 257.863 1079.45 257.853 1076.47 257.533H1076.46Z" fill="#C4A88F"/>
<path d="M1172.83 169.113C1175.1 161.403 1174.2 144.343 1155.52 144.223C1162.44 134.613 1165.66 112.153 1148.84 111.013C1144.59 111.043 1150.55 125.113 1142.54 134.353C1135.59 121.793 1119.61 117.273 1107.14 124.863C1105.46 125.413 1100.58 128.833 1103.22 129.893C1112.41 131.733 1121.19 134.523 1127.89 141.143C1117.12 140.833 1107.74 147.813 1102.19 156.273C1100.22 160.773 1110.13 157.763 1112.03 157.993C1118.82 157.193 1125.99 156.063 1132.78 157.063C1133.59 161.893 1128.84 175.023 1131.14 177.553C1139.82 177.053 1145.84 171.623 1147.71 163.753C1150.67 167.123 1155.71 175.503 1157.69 180.133C1159.6 184.933 1156.77 187.103 1161.6 184.083C1167.94 177.943 1165.57 162.193 1160 158.343C1165.64 158.993 1167.89 165.713 1170.96 170.673C1172.19 171.993 1172.7 169.973 1172.84 169.113H1172.83Z" fill="#78C262"/>
<path d="M1156.43 120.713C1156.76 124.313 1157.19 128.003 1155.65 131.463C1155.42 131.983 1155.2 132.523 1154.98 133.053C1154.76 133.583 1154.54 134.113 1154.3 134.633C1154.07 135.153 1153.82 135.663 1153.56 136.153C1153.3 136.643 1153.01 137.123 1152.72 137.603C1151.98 138.793 1151.12 139.893 1150.26 141.003C1149.42 142.143 1148.55 143.273 1147.73 144.443C1148.49 144.713 1149.5 145.183 1150.53 145.473C1151.64 145.793 1152.69 146.183 1153.71 146.633C1154.72 147.073 1155.71 147.633 1156.65 148.203C1158.54 149.363 1160.28 150.703 1161.92 152.143C1166.14 155.893 1168.7 160.573 1170.73 165.513C1170.98 166.123 1171.22 166.733 1171.33 167.383C1171.44 168.033 1171.42 168.753 1171.16 169.523C1170.22 166.663 1169.17 163.943 1167.85 161.463C1166.53 158.973 1164.94 156.643 1162.93 154.593C1160.96 152.563 1158.79 150.743 1156.29 149.183C1155.04 148.403 1153.73 147.733 1152.3 147.113C1151.59 146.813 1150.85 146.523 1150.09 146.263C1149.33 146.003 1148.53 145.753 1147.73 145.553C1148.55 146.823 1149.04 147.593 1149.56 148.353C1152.75 153.023 1155.75 157.773 1158.06 162.723C1159.56 165.933 1160.65 169.073 1161.33 172.003C1161.66 173.453 1161.91 174.923 1162.05 176.313C1162.12 177.013 1162.16 177.693 1162.17 178.363C1162.19 179.053 1162.19 179.733 1162.15 180.403C1162.12 180.973 1161.97 181.483 1161.73 181.933C1161.5 182.403 1161.18 182.833 1160.8 183.223C1160.75 182.943 1160.63 182.623 1160.66 182.373C1160.71 181.923 1160.75 181.453 1160.78 180.993C1160.81 180.543 1160.83 180.093 1160.83 179.633C1160.83 178.713 1160.79 177.773 1160.7 176.813C1160.53 174.953 1160.15 172.993 1159.6 170.983C1159.06 169.003 1158.33 166.953 1157.42 164.843C1156.97 163.793 1156.47 162.723 1155.92 161.643C1155.38 160.573 1154.79 159.493 1154.16 158.403C1152.08 154.803 1149.81 151.253 1147.49 147.263C1147.16 148.253 1146.86 149.193 1146.59 150.123C1146.33 151.073 1146.09 151.993 1145.87 152.893C1145.4 154.673 1145.04 156.463 1144.63 158.153C1144.41 159.013 1144.15 159.863 1143.82 160.663C1143.49 161.463 1143.1 162.213 1142.68 162.943C1142.27 163.693 1141.82 164.413 1141.35 165.113C1141.11 165.463 1140.87 165.803 1140.63 166.153L1139.92 167.203C1139.45 167.893 1138.99 168.573 1138.51 169.253C1138.05 169.943 1137.57 170.623 1137.05 171.253C1136.79 171.573 1136.51 171.883 1136.23 172.193C1135.95 172.503 1135.66 172.803 1135.35 173.093C1134.73 173.673 1134.02 174.203 1133.23 174.683C1133.81 173.623 1134.41 172.563 1135.03 171.503C1135.44 170.813 1135.89 170.163 1136.33 169.483C1136.78 168.823 1137.21 168.123 1137.68 167.483C1138.61 166.173 1139.52 164.823 1140.45 163.493C1140.89 162.853 1141.27 162.183 1141.62 161.513C1141.98 160.853 1142.31 160.173 1142.6 159.473C1142.74 159.123 1142.88 158.763 1143.01 158.403C1143.14 158.043 1143.26 157.683 1143.39 157.323C1143.63 156.603 1143.85 155.863 1144.05 155.113C1144.43 153.593 1144.78 152.063 1145.09 150.473C1145.24 149.663 1145.39 148.863 1145.54 148.053C1145.7 147.243 1145.85 146.433 1146.01 145.623C1146.04 145.463 1145.93 145.263 1145.85 144.953C1145.1 144.603 1144.3 144.423 1143.5 144.363C1143.1 144.333 1142.69 144.333 1142.28 144.363C1141.88 144.393 1141.48 144.453 1141.09 144.523C1140.04 144.713 1138.98 144.913 1137.91 145.123C1136.85 145.333 1135.81 145.593 1134.75 145.843C1132.62 146.333 1130.56 146.953 1128.46 147.613C1122.24 149.643 1116.18 152.273 1110.23 155.203C1109.31 155.643 1108.33 155.983 1107.39 156.393L1106.9 155.863C1107.24 155.573 1107.56 155.243 1107.89 154.933C1108.22 154.633 1108.59 154.353 1108.99 154.163C1118.35 149.603 1128.09 145.963 1137.99 143.643C1139.08 143.393 1140.21 143.273 1141.4 143.193C1142.61 143.133 1143.89 143.113 1145.25 143.043C1143.05 140.783 1140.76 138.663 1138.32 136.743C1137.1 135.783 1135.84 134.883 1134.54 134.033C1133.23 133.183 1131.91 132.423 1130.51 131.703C1124.95 128.863 1118.51 127.123 1111.03 127.233C1112.14 127.003 1113.23 126.823 1114.31 126.703C1115.41 126.593 1116.5 126.543 1117.56 126.553C1119.7 126.593 1121.71 126.883 1123.68 127.593C1127.96 129.143 1131.09 130.183 1134.61 132.203C1136.36 133.203 1138.17 134.443 1140.2 136.093C1142.23 137.743 1144.47 139.803 1147.09 142.513C1150.23 138.583 1153.17 134.823 1154.44 129.583C1155.11 126.993 1155.03 124.543 1154.46 122.183C1153.9 119.823 1152.84 117.543 1151.65 115.263L1152.42 114.963C1153.37 115.973 1154.3 116.993 1155.22 118.023L1156.43 120.683V120.713Z" fill="#6EB158"/>
<path d="M1765.34 514.693H227.598C262.238 471.913 304.848 432.373 354.138 396.913C371.938 384.103 390.608 371.843 410.088 360.143C564.848 267.223 770.608 210.573 996.468 210.573C1182.76 210.573 1355.38 249.112 1496.98 314.762C1522.63 326.642 1547.27 339.433 1570.79 353.033C1649.5 398.563 1715.64 453.303 1765.34 514.693Z" fill="#FFE496"/>
<path d="M1765.34 514.693H227.598C262.238 471.913 304.848 432.373 354.138 396.913C371.938 384.103 390.608 371.842 410.088 360.142C485.818 366.012 561.478 373.333 636.178 363.223C764.438 345.883 869.768 290.463 999.698 290.913C1083.53 291.193 1174.27 307.843 1257.26 317.713C1336.55 327.153 1416.84 319.052 1496.98 314.762C1522.63 326.642 1547.27 339.433 1570.79 353.033C1649.5 398.563 1715.64 453.303 1765.34 514.693Z" fill="#FFDD7D"/>
<path d="M1142.18 240.873C1141.36 239.813 1138.65 237.183 1138.67 240.073C1138.67 240.783 1138.98 241.793 1138.81 242.473C1138.59 243.363 1136.36 243.883 1135.44 244.383C1135.25 244.483 1135.03 244.673 1135.11 244.873C1135.14 244.953 1135.22 245.013 1135.29 245.053C1136.25 245.713 1137.86 245.753 1138.62 246.653C1139.21 247.353 1137.88 250.323 1138.24 251.143C1138.87 251.193 1139.97 250.023 1140.41 249.673C1141.27 248.993 1141.86 247.833 1143.07 247.763C1144.01 247.713 1147.89 249.513 1148.09 249.283C1148.36 248.973 1147.64 247.753 1147.24 247.013C1146.91 246.403 1146.26 245.843 1146.04 245.203C1145.55 243.763 1148.99 241.833 1147.49 241.163C1146.4 240.673 1144.69 241.413 1143.57 241.533C1143.33 241.553 1143.07 241.583 1142.84 241.493C1142.56 241.383 1142.37 241.113 1142.19 240.873H1142.18Z" fill="#FF8972"/>
<path d="M1140.37 240.483C1140.57 241.143 1140.85 241.773 1141.1 242.413C1141.22 242.713 1141.34 243.013 1141.46 243.303C1141.61 243.683 1141.75 243.943 1141.62 244.353C1141.42 245.003 1141.22 245.643 1141.01 246.283C1140.83 246.873 1140.7 247.513 1140.34 248.013C1140.3 248.063 1140.36 248.123 1140.41 248.113C1140.9 247.963 1141.01 247.173 1141.15 246.753C1141.4 245.973 1141.65 245.203 1141.9 244.423C1142 244.113 1142.02 243.903 1141.9 243.603C1141.77 243.273 1141.61 242.943 1141.47 242.623C1141.15 241.893 1140.84 241.143 1140.45 240.443C1140.42 240.393 1140.35 240.433 1140.37 240.483Z" fill="#FF6F56"/>
<path d="M1138.54 244.733C1139.75 244.553 1140.95 244.303 1142.12 243.953C1143.24 243.623 1144.42 243.263 1145.46 242.713C1145.58 242.653 1145.5 242.453 1145.37 242.493C1144.81 242.693 1144.27 242.953 1143.7 243.163C1143.14 243.373 1142.57 243.563 1142 243.733C1140.85 244.083 1139.69 244.373 1138.51 244.583C1138.41 244.603 1138.46 244.743 1138.55 244.733H1138.54Z" fill="#FF6F56"/>
<path d="M1141.83 243.983C1142.42 244.443 1142.99 244.903 1143.58 245.353C1144.18 245.813 1144.76 246.293 1145.38 246.733C1145.52 246.833 1145.69 246.603 1145.56 246.503C1144.4 245.563 1143.16 244.713 1141.96 243.823C1141.86 243.753 1141.74 243.913 1141.83 243.993V243.983Z" fill="#FF6F56"/>
<path d="M1215.48 261.633C1214.25 260.043 1210.18 256.093 1210.2 260.433C1210.2 261.503 1210.67 263.023 1210.41 264.033C1210.08 265.373 1206.72 266.163 1205.34 266.913C1205.05 267.073 1204.72 267.343 1204.84 267.653C1204.89 267.773 1205 267.853 1205.11 267.933C1206.56 268.923 1208.98 268.983 1210.12 270.343C1211 271.393 1209.01 275.863 1209.55 277.093C1210.49 277.163 1212.15 275.403 1212.82 274.873C1214.11 273.843 1215 272.103 1216.82 272.003C1218.23 271.933 1224.07 274.643 1224.37 274.293C1224.78 273.823 1223.69 271.983 1223.09 270.883C1222.59 269.963 1221.61 269.123 1221.28 268.163C1220.54 266.003 1225.72 263.093 1223.46 262.083C1221.81 261.353 1219.25 262.463 1217.56 262.633C1217.19 262.673 1216.81 262.703 1216.47 262.573C1216.04 262.403 1215.77 262.003 1215.48 261.643V261.633Z" fill="#FFAA63"/>
<path d="M1212.76 261.043C1213.06 262.033 1213.48 262.993 1213.86 263.943C1214.05 264.423 1214.25 264.903 1214.44 265.383C1214.53 265.603 1214.64 265.833 1214.71 266.053C1214.8 266.333 1214.74 266.543 1214.66 266.823C1214.35 267.823 1214.03 268.823 1213.72 269.813C1213.45 270.673 1213.27 271.633 1212.72 272.373C1212.66 272.443 1212.76 272.533 1212.83 272.523C1213.21 272.433 1213.38 272.083 1213.51 271.743C1213.71 271.253 1213.85 270.733 1214.01 270.233C1214.37 269.133 1214.72 268.033 1215.08 266.933C1215.23 266.473 1215.23 266.133 1215.03 265.673C1214.81 265.153 1214.58 264.643 1214.35 264.133C1213.88 263.073 1213.43 261.983 1212.87 260.963C1212.83 260.893 1212.72 260.943 1212.74 261.013L1212.76 261.043Z" fill="#FF9047"/>
<path d="M1210 267.433C1211.8 267.163 1213.6 266.793 1215.34 266.273C1216.2 266.013 1217.06 265.733 1217.91 265.423C1218.33 265.263 1218.75 265.103 1219.17 264.933C1219.58 264.763 1220.02 264.623 1220.4 264.393C1220.57 264.293 1220.46 264.003 1220.26 264.063C1219.83 264.193 1219.43 264.413 1219.01 264.583C1218.59 264.753 1218.17 264.923 1217.75 265.073C1216.91 265.393 1216.05 265.673 1215.19 265.933C1213.46 266.453 1211.72 266.893 1209.94 267.213C1209.8 267.243 1209.86 267.453 1210 267.433Z" fill="#FF9047"/>
<path d="M1214.96 266.312C1215.84 266.992 1216.71 267.693 1217.59 268.373C1218.49 269.063 1219.37 269.793 1220.29 270.443C1220.49 270.593 1220.76 270.253 1220.56 270.093C1218.81 268.673 1216.95 267.393 1215.14 266.053C1215 265.943 1214.81 266.193 1214.95 266.303L1214.96 266.312Z" fill="#FF9047"/>
<path d="M768.658 260.023C767.168 258.673 762.468 255.483 763.248 259.753C763.438 260.803 764.158 262.223 764.088 263.263C763.998 264.643 760.828 266.003 759.588 266.983C759.338 267.183 759.058 267.513 759.228 267.793C759.298 267.903 759.418 267.963 759.538 268.023C761.128 268.743 763.528 268.393 764.888 269.523C765.938 270.403 764.748 275.153 765.498 276.273C766.438 276.183 767.768 274.163 768.328 273.523C769.428 272.283 769.988 270.413 771.768 270.003C773.148 269.683 779.368 271.343 779.608 270.943C779.928 270.413 778.538 268.793 777.758 267.803C777.108 266.983 775.998 266.323 775.508 265.433C774.398 263.433 778.998 259.663 776.598 259.063C774.848 258.623 772.518 260.173 770.888 260.633C770.538 260.733 770.158 260.833 769.798 260.763C769.348 260.673 769.008 260.323 768.668 260.013L768.658 260.023Z" fill="#FFAA63"/>
<path d="M765.878 259.912C766.348 260.832 766.918 261.702 767.468 262.582C767.738 263.022 768.018 263.462 768.298 263.902C768.428 264.102 768.568 264.302 768.688 264.522C768.828 264.782 768.808 265.002 768.768 265.292C768.638 266.332 768.498 267.362 768.368 268.402C768.248 269.302 768.248 270.272 767.828 271.092C767.788 271.172 767.888 271.252 767.968 271.212C768.328 271.062 768.428 270.682 768.508 270.332C768.618 269.812 768.668 269.282 768.738 268.762C768.898 267.622 769.058 266.472 769.218 265.332C769.288 264.852 769.218 264.512 768.958 264.102C768.648 263.632 768.328 263.172 768.018 262.702C767.368 261.742 766.738 260.742 766.008 259.842C765.958 259.782 765.858 259.842 765.888 259.922L765.878 259.912Z" fill="#FF9047"/>
<path d="M764.268 266.693C765.998 266.113 767.698 265.433 769.328 264.623C770.138 264.223 770.928 263.793 771.708 263.333C772.098 263.103 772.478 262.873 772.868 262.633C773.238 262.403 773.648 262.173 773.978 261.893C774.128 261.763 773.978 261.493 773.788 261.593C773.388 261.803 773.028 262.083 772.648 262.323C772.268 262.563 771.878 262.803 771.498 263.033C770.718 263.493 769.928 263.923 769.128 264.333C767.518 265.143 765.878 265.883 764.178 266.503C764.038 266.553 764.138 266.753 764.278 266.703L764.268 266.693Z" fill="#FF9047"/>
<path d="M768.958 264.723C769.948 265.243 770.918 265.783 771.908 266.303C772.908 266.833 773.908 267.383 774.928 267.873C775.158 267.983 775.358 267.603 775.138 267.483C773.168 266.393 771.118 265.452 769.108 264.452C768.948 264.372 768.798 264.643 768.958 264.733V264.723Z" fill="#FF9047"/>
<g style="mix-blend-mode:multiply">
<path d="M1020.73 274.642C1001.56 271.922 954.538 264.382 948.968 263.722C947.848 263.512 946.858 263.842 946.448 264.382C941.778 268.782 938.128 273.372 933.268 277.722C930.828 279.902 930.148 280.062 933.788 280.892C942.138 282.792 988.678 290.442 1003.44 292.372C1006.44 292.762 1006.97 293.102 1010.22 292.712C1013.68 292.302 1013.97 291.622 1015.37 289.492C1017.18 286.742 1024.09 277.432 1024.07 276.362C1024.05 275.412 1022.83 274.772 1020.74 274.642H1020.73Z" fill="#F5D7BD"/>
</g>
<path d="M1020.09 272.813C1000.92 270.253 953.898 263.113 948.328 262.503C947.208 262.303 946.228 262.643 945.808 263.183C941.138 267.623 937.488 272.243 932.628 276.633C930.188 278.833 929.508 279.003 933.148 279.803C941.498 281.633 988.038 288.893 1002.8 290.693C1005.8 291.063 1006.33 291.393 1009.58 290.983C1013.04 290.553 1013.33 289.863 1014.73 287.713C1016.54 284.953 1023.45 275.573 1023.43 274.513C1023.41 273.563 1022.19 272.933 1020.1 272.823L1020.09 272.813Z" fill="#F5ED84"/>
<mask id="mask0_4_468" style="mask-type:luminance" maskUnits="userSpaceOnUse" x="930" y="262" width="94" height="30">
<path d="M1020.09 272.813C1000.92 270.253 953.898 263.113 948.328 262.503C947.208 262.303 946.228 262.643 945.808 263.183C941.138 267.623 937.488 272.243 932.628 276.633C930.188 278.833 929.878 278.683 933.148 279.803C939.748 282.153 984.768 287.963 999.528 289.763C1002.53 290.133 1006.33 291.383 1009.59 290.973C1013.05 290.543 1013.34 289.853 1014.74 287.703C1016.55 284.943 1023.46 275.563 1023.44 274.503C1023.42 273.553 1022.2 272.923 1020.11 272.813H1020.09Z" fill="white"/>
</mask>
<g mask="url(#mask0_4_468)">
<path d="M906.338 274.543C920.888 277.333 935.838 279.773 951.038 281.963C958.698 283.073 966.388 284.133 974.048 285.253C981.308 286.323 988.488 287.473 995.688 288.613C1003.49 289.843 1011.4 291.033 1019.4 291.883C1020.58 292.003 1020.5 291.553 1019.33 291.423C1012.2 290.673 1005.15 289.633 998.178 288.543C991.028 287.423 983.918 286.263 976.728 285.193C961.658 282.953 946.428 280.953 931.508 278.523C923.138 277.163 914.868 275.693 906.748 274.143C905.638 273.933 905.248 274.333 906.358 274.543H906.338Z" fill="white"/>
<path d="M954.058 279.893C961.718 280.993 969.408 282.053 977.068 283.163C984.348 284.223 991.548 285.373 998.768 286.513C1006.59 287.743 1014.51 288.923 1022.51 289.763C1023.69 289.883 1023.61 289.433 1022.44 289.303C1015.32 288.553 1008.26 287.533 1001.28 286.443C994.118 285.333 986.998 284.173 979.798 283.103C964.698 280.873 949.458 278.883 934.488 276.463C926.108 275.103 917.838 273.653 909.698 272.103C908.588 271.893 908.198 272.293 909.308 272.503C923.898 275.283 938.858 277.703 954.058 279.883V279.893Z" fill="white"/>
<path d="M957.078 277.823C964.748 278.913 972.428 279.963 980.088 281.073C987.388 282.133 994.608 283.273 1001.85 284.403C1009.69 285.623 1017.63 286.802 1025.63 287.632C1026.8 287.752 1026.73 287.303 1025.56 287.173C1018.44 286.433 1011.38 285.413 1004.39 284.333C997.218 283.223 990.088 282.073 982.868 281.013C967.738 278.793 952.478 276.813 937.478 274.403C929.098 273.053 920.808 271.603 912.658 270.063C911.538 269.853 911.148 270.253 912.258 270.463C926.878 273.223 941.858 275.643 957.068 277.813L957.078 277.823Z" fill="white"/>
<path d="M960.088 275.753C967.758 276.843 975.438 277.883 983.098 278.983C990.418 280.033 997.658 281.173 1004.92 282.303C1012.78 283.523 1020.73 284.693 1028.73 285.523C1029.9 285.643 1029.83 285.183 1028.66 285.063C1021.54 284.333 1014.47 283.313 1007.47 282.243C1000.29 281.143 993.148 279.993 985.918 278.943C970.768 276.733 955.488 274.773 940.448 272.363C932.058 271.023 923.768 269.583 915.608 268.043C914.488 267.833 914.098 268.223 915.208 268.433C929.858 271.183 944.858 273.593 960.068 275.743L960.088 275.753Z" fill="white"/>
<path d="M963.108 273.683C970.778 274.763 978.458 275.803 986.118 276.893C993.458 277.943 1000.72 279.073 1008 280.203C1015.88 281.423 1023.85 282.583 1031.85 283.403C1033.02 283.523 1032.96 283.063 1031.78 282.943C1024.67 282.213 1017.59 281.213 1010.58 280.143C1003.39 279.043 996.228 277.903 988.998 276.853C973.818 274.663 958.518 272.703 943.448 270.313C935.058 268.983 926.758 267.543 918.578 266.013C917.458 265.803 917.058 266.193 918.178 266.403C932.858 269.143 947.878 271.543 963.098 273.683H963.108Z" fill="white"/>
<path d="M966.128 271.622C973.798 272.692 981.478 273.722 989.138 274.812C996.488 275.852 1003.78 276.992 1011.08 278.112C1018.98 279.322 1026.96 280.482 1034.97 281.292C1036.14 281.412 1036.08 280.952 1034.9 280.832C1027.79 280.112 1020.7 279.112 1013.68 278.052C1006.47 276.962 999.308 275.822 992.068 274.782C976.858 272.602 961.548 270.652 946.438 268.272C938.038 266.942 929.728 265.522 921.538 263.992C920.408 263.782 920.018 264.172 921.138 264.382C935.858 267.112 950.888 269.502 966.108 271.622H966.128Z" fill="white"/>
<path d="M969.148 269.553C976.818 270.613 984.498 271.643 992.158 272.713C999.528 273.753 1006.84 274.883 1014.16 275.993C1022.07 277.203 1030.07 278.353 1038.08 279.163C1039.25 279.283 1039.19 278.823 1038.01 278.703C1030.91 277.993 1023.81 276.993 1016.78 275.933C1009.56 274.843 1002.39 273.713 995.138 272.673C979.898 270.503 964.568 268.563 949.428 266.193C941.028 264.873 932.708 263.453 924.498 261.933C923.368 261.723 922.968 262.113 924.098 262.323C938.848 265.043 953.898 267.413 969.128 269.533L969.148 269.553Z" fill="white"/>
<path d="M1019.89 273.843C1012.66 272.763 1005.47 271.633 998.218 270.603C982.958 268.443 967.608 266.523 952.428 264.153C944.028 262.843 935.688 261.423 927.478 259.913C926.348 259.703 925.948 260.093 927.078 260.303C941.858 263.013 956.928 265.373 972.158 267.473C979.828 268.533 987.508 269.543 995.178 270.613C1002.57 271.643 1009.89 272.773 1017.24 273.883C1025.17 275.083 1033.19 276.243 1041.2 277.033C1042.37 277.153 1042.31 276.693 1041.13 276.573C1034.03 275.863 1026.93 274.883 1019.89 273.823V273.843Z" fill="white"/>
</g>
<path d="M1016.24 259.663C1021.16 244.603 1034.17 201.833 1034.52 200.773C1034.85 199.793 1034.84 199.043 1033.62 199.233C1033.28 199.133 1032.92 199.263 1032.8 199.713C1031.02 206.233 1015.49 255.103 1013.8 260.043C1013.8 260.043 1013.55 260.873 1013.46 261.193C1013.28 261.793 1013.78 262.323 1014.18 262.413C1014.78 262.553 1015.4 262.273 1015.65 261.523C1015.7 261.383 1016.2 259.803 1016.24 259.663Z" fill="#C2B4B4"/>
<path d="M1054.7 194.073C1054.28 193.763 1053.67 193.423 1052.93 193.053C1045.11 192.423 1038.08 192.593 1034.21 197.073C1033.63 194.033 1035.72 190.163 1024.25 186.243C1015.79 185.993 1005.64 188.633 999.628 192.373C1007.49 195.583 1013.74 194.233 1027.01 200.753C1024.86 200.443 1003.01 202.953 992.948 205.083C992.968 205.893 992.598 209.933 992.888 210.713C999.098 217.103 1003.59 221.983 1008.22 227.583C1008.4 227.703 1008.59 227.823 1008.78 227.933C1015.41 219.823 1021.76 211.343 1031.31 205.193C1032.53 207.683 1033.97 213.723 1034.49 216.213C1035.4 220.633 1037.36 227.773 1036.74 233.423C1036.66 234.173 1036.55 234.923 1036.39 235.663C1037.96 235.833 1038.49 235.433 1039.8 235.063C1046.2 233.233 1055.47 230.233 1059.34 229.103C1060.08 228.893 1061.19 228.483 1061.63 228.313C1061.63 228.313 1063.34 224.603 1062.5 223.363C1057.78 216.393 1054.91 215.263 1047.02 209.813C1062.74 212.833 1051.45 205.553 1062.74 209.513C1064.45 210.173 1065.81 207.163 1067.41 207.973C1065.64 204.843 1059.51 197.563 1054.68 194.083L1054.7 194.073Z" fill="white"/>
<path d="M1032.45 200.432C1025.14 204.602 1015.65 212.242 1008.15 227.482C1008.2 227.582 1008.77 228.112 1009.79 228.332C1019.38 230.452 1023.07 231.902 1033.14 234.902C1034.07 235.222 1035.46 235.562 1036.41 235.652C1036.6 234.912 1039.37 228.612 1036.71 215.412C1035.58 209.792 1033.25 201.902 1032.45 200.422V200.432Z" fill="#FF736E"/>
<path d="M1032.65 200.552C1013.14 188.922 999.758 192.282 999.628 192.372C997.508 193.792 990.308 206.712 992.888 210.712C1008.27 201.582 1030.5 200.242 1032.65 200.552Z" fill="#FF736E"/>
<path d="M1061.51 205.852C1044.81 200.722 1032.35 200.422 1032.35 200.422C1032.35 200.422 1054.06 212.412 1061.65 228.292C1062.15 228.102 1062.49 227.802 1062.85 227.372C1068.09 220.892 1069.35 211.332 1067.44 207.952C1067.44 207.952 1066.82 207.482 1061.51 205.852Z" fill="#FF736E"/>
<path d="M1052.93 193.053C1047.32 190.283 1032.88 186.593 1024.63 186.263C1024.5 186.263 1024.01 186.243 1023.88 186.243C1028.5 189.723 1031.5 196.423 1032.4 200.623C1042.12 192.293 1052.47 192.993 1052.93 193.053Z" fill="#FF736E"/>
<g style="mix-blend-mode:multiply">
<g style="mix-blend-mode:multiply" opacity="0.71">
<path d="M1041.59 254.313C1037 252.603 1014.74 247.693 1007.88 247.283C1007.28 247.243 1006.52 247.273 1005.65 247.343C999.098 247.923 985.948 251.523 980.488 255.513C980.448 255.543 980.338 255.623 980.238 255.703C980.198 255.733 980.158 255.763 980.118 255.793C980.068 255.833 980.018 255.863 979.998 255.883C974.578 260.133 969.188 269.233 969.648 275.393C969.648 275.533 969.668 275.673 969.688 275.803C969.948 277.933 980.138 289.783 985.288 293.643C985.288 293.663 985.268 293.673 985.258 293.693C985.638 293.973 985.998 294.193 986.358 294.373C986.358 294.373 986.378 294.383 986.388 294.393C986.878 294.633 987.348 294.763 987.758 294.753C997.308 295.103 1009.98 299.163 1019.07 301.453C1019.09 301.453 1019.13 301.473 1019.18 301.483C1019.19 301.483 1019.21 301.483 1019.22 301.493C1019.22 301.493 1019.23 301.493 1019.24 301.493C1019.58 301.553 1020.32 301.593 1021.03 301.323C1029.31 298.133 1033.03 298.033 1042.59 295.333C1043.52 295.113 1044.75 294.683 1045.44 294.273C1046.6 293.593 1047.37 292.663 1047.8 291.683C1051 285.323 1055.1 279.123 1057.45 276.693C1057.89 276.233 1058.14 275.863 1058.22 275.483C1058.31 275.063 1058.2 274.633 1057.93 274.083C1053.93 265.933 1046.53 256.153 1041.57 254.313H1041.59Z" fill="#FFEAD7"/>
</g>
</g>
<path d="M2092.49 230.643V579.903C1362.18 630.673 628.698 629.513 -101.472 576.423V206.693C-2.96217 222.173 101.158 238.823 195.548 269.143C331.378 312.793 468.448 295.523 610.808 309.423C752.998 323.273 888.558 360.123 1033.15 359.673C1104.97 359.423 1174.85 344.543 1246.4 339.973C1334.22 334.373 1427.2 340.753 1513.36 322.473C1591.34 305.933 1666.48 285.013 1746.51 274.773C1819.7 265.393 1891.98 258.792 1965.21 247.312C2007.07 240.753 2049.67 235.203 2092.47 230.633L2092.49 230.643Z" fill="#7ACEFF"/>
<path d="M2092.49 246.093V595.353C1362.18 646.123 628.698 644.963 -101.472 591.873V222.143C-2.96217 237.623 101.158 254.273 195.548 284.593C331.378 328.243 468.448 310.963 610.808 324.873C752.998 338.723 888.558 375.583 1033.15 375.123C1104.97 374.873 1174.85 359.993 1246.4 355.423C1334.22 349.813 1427.2 356.203 1513.36 337.923C1591.34 321.383 1666.48 300.463 1746.51 290.223C1819.7 280.843 1891.98 274.243 1965.21 262.763C2007.07 256.203 2049.67 250.653 2092.47 246.083L2092.49 246.093Z" fill="#39AAF5"/>
<path d="M2092.49 343.112V595.363C1362.18 646.133 628.698 644.972 -101.472 591.882V318.422C-2.96217 333.952 119.078 351.662 213.478 381.822C349.318 425.312 486.388 407.882 628.758 421.622C770.958 435.302 906.508 472.012 1051.11 471.382C1122.93 471.052 1192.8 456.103 1264.36 451.443C1352.17 445.753 1445.16 452.012 1531.31 433.632C1609.29 417.002 1684.42 396.003 1764.45 385.663C1837.64 376.203 1909.91 369.512 1983.14 357.952C2019.16 352.262 2055.72 347.332 2092.48 343.122L2092.49 343.112Z" fill="#1795EB"/>
<path d="M2141.45 368.453V620.703C1411.28 673.793 677.798 674.952 -52.5122 624.182C-52.5122 533.032 -52.5122 441.873 -52.5122 350.723C46.0178 365.943 168.078 383.263 262.498 413.123C398.358 456.183 535.448 438.323 677.818 451.603C820.028 464.833 955.588 501.103 1100.18 500.023C1172 499.473 1241.87 484.293 1313.42 479.403C1401.23 473.433 1494.21 479.403 1580.35 460.753C1658.32 443.873 1733.44 422.633 1813.47 412.043C1886.65 402.353 1958.91 395.423 2032.12 383.633C2068.13 377.833 2104.69 372.793 2141.44 368.453H2141.45Z" fill="#177AEB"/>
<path d="M1905.22 289.603C1927.5 284.343 1949.37 277.723 1971.68 271.793C1996.53 265.183 2015.92 262.233 2042.07 260.663C2056.24 259.823 2094.06 257.613 2077.5 271.953C2056.22 290.413 2000.07 297.703 1967.82 301.653C1951.19 303.703 1935.42 303.583 1918.91 304.693C1909.07 305.353 1896.2 307.513 1887.6 305.013C1869.55 299.763 1893.14 292.473 1905.02 289.663C1905.09 289.653 1905.15 289.633 1905.22 289.613V289.603Z" fill="#1E98E8"/>
<path d="M1761.62 309.822C1768.66 307.432 1777.41 306.832 1784.87 306.162C1793.7 305.382 1801.05 303.682 1809.72 302.002C1818.13 300.382 1826.48 298.832 1835.01 297.682C1840.55 296.932 1855.14 296.052 1858.11 298.842C1862.78 303.242 1845.28 309.502 1839.84 312.112C1829.91 316.892 1821.57 319.862 1808.91 320.822C1796.81 321.732 1783.48 322.102 1772.07 320.902C1763.82 320.032 1745.75 317.002 1758.4 311.092C1759.42 310.612 1760.5 310.192 1761.62 309.812V309.822Z" fill="#1E98E8"/>
<path d="M1700.38 339.943C1684.13 337.473 1710.88 331.163 1715.75 329.973C1718.91 329.213 1722.27 328.762 1725.53 328.322C1735.2 327.022 1751.38 327.273 1757.3 331.473C1763.32 335.753 1749 337.363 1743.1 338.123C1729.93 339.823 1712.82 341.823 1700.38 339.933V339.943Z" fill="#1E98E8"/>
<path d="M1655.38 321.193C1659.61 316.703 1683.13 315.283 1691.46 314.633C1694.76 314.383 1720.15 312.613 1714.36 317.443C1709.84 321.223 1684.53 323.733 1677.17 324.493C1672.01 325.033 1650.31 326.603 1655.38 321.193Z" fill="#1E98E8"/>
<path d="M996.758 398.963C982.908 398.983 969.468 397.363 956.198 395.813C948.808 394.953 940.898 395.293 933.248 395.583C923.258 395.963 909.978 399.873 903.358 404.423C898.118 408.033 904.938 410.173 910.198 411.033C921.838 412.943 935.448 413.243 947.828 412.983C951.808 412.903 955.658 412.913 959.618 412.593C965.658 412.103 971.818 411.833 977.828 411.123C982.328 410.593 986.368 409.633 990.488 408.373C993.948 407.323 1008.91 403.063 1008.44 400.643C1008.05 398.633 1001.26 398.903 998.628 398.933C997.998 398.933 997.378 398.943 996.758 398.943V398.963Z" fill="#1E98E8"/>
<path d="M1087.34 396.523C1092.69 394.173 1084.54 393.003 1081.17 392.653C1076.32 392.143 1071.09 392.703 1065.97 393.133C1061.53 393.503 1057.11 393.393 1052.67 394.123C1047 395.053 1041.27 398.133 1037.04 400.213C1034.78 401.323 1029.14 404.073 1031.5 405.563C1034.05 407.173 1046.15 405.223 1049.69 404.763C1062.51 403.093 1076.76 401.163 1087.35 396.513L1087.34 396.523Z" fill="#1E98E8"/>
<path d="M1125.96 399.253C1119.06 398.463 1110.82 400.362 1103.72 400.892C1097.23 401.382 1088.98 401.823 1083.57 404.443C1080.5 405.933 1080.74 406.772 1083.2 407.612C1087.81 409.192 1095.62 407.862 1100.78 407.082C1107.39 406.082 1114.32 405.493 1120.81 404.093C1124.39 403.323 1134.67 400.233 1125.96 399.243V399.253Z" fill="#1E98E8"/>
<path d="M1127.03 390.322C1129.91 385.572 1112.03 385.902 1113.44 391.542C1114.1 394.192 1125.74 392.442 1127.03 390.322Z" fill="#1E98E8"/>
<path d="M904.368 393.713C914.628 387.893 864.568 380.043 865.858 389.193C866.468 393.513 899.778 396.333 904.368 393.713Z" fill="#1E98E8"/>
<path d="M1472.07 498.054C1484.53 493.834 1491.86 482.237 1488.45 472.152C1485.03 462.067 1472.16 457.312 1459.7 461.532C1447.24 465.752 1439.91 477.349 1443.33 487.434C1446.74 497.519 1459.61 502.274 1472.07 498.054Z" fill="#E5F7FE"/>
<path d="M2116.37 358.123V564.513L1419.15 578.693L1008.33 587.053L969.628 587.843C1106.36 568.933 1266.64 567.943 1401.72 514.843C1457.77 492.803 1509.8 466.443 1568.14 451.323C1628.55 435.673 1684.61 431.853 1734.33 435.643C1841.42 443.813 1956.61 433.153 2066.74 379.403C2082.41 371.763 2099.07 364.583 2116.37 358.123Z" fill="#E5F7FE"/>
<path d="M2116.37 387.603V564.503L1419.15 578.693L1008.33 587.053C1134.27 577.013 1272.7 573.563 1394.1 530.433C1452.46 509.703 1507 482.863 1567.28 470.813C1623.19 459.633 1676.76 457.583 1727.27 462.743C1836.04 473.853 1951.35 463.573 2065.33 409.503C2070.14 407.223 2074.95 404.993 2079.78 402.823C2091.95 397.343 2104.14 392.253 2116.37 387.603Z" fill="#177AEB"/>
<path d="M1956.59 438.573C1973.17 432.959 1983.52 419.278 1979.7 408.016C1975.89 396.753 1959.36 392.175 1942.78 397.789C1926.21 403.403 1915.86 417.084 1919.67 428.346C1923.49 439.609 1940.02 444.187 1956.59 438.573Z" fill="white"/>
<path d="M1930.86 340.582C1938.15 338.113 1942.45 331.327 1940.45 325.427C1938.45 319.526 1930.92 316.745 1923.63 319.214C1916.33 321.684 1912.04 328.469 1914.04 334.37C1916.04 340.27 1923.57 343.052 1930.86 340.582Z" fill="white"/>
<path d="M1794.99 448.136C1805.66 444.52 1811.95 434.588 1809.02 425.951C1806.1 417.315 1795.07 413.245 1784.39 416.861C1773.72 420.477 1767.43 430.409 1770.36 439.045C1773.28 447.682 1784.31 451.752 1794.99 448.136Z" fill="#E5F7FE"/>
<path d="M1840.42 393.752C1842.91 398.512 1840.07 404.582 1834.08 407.322C1828.09 410.062 1821.22 408.422 1818.73 403.672C1816.24 398.922 1819.08 392.842 1825.07 390.102C1831.06 387.362 1837.93 389.002 1840.42 393.752Z" fill="white"/>
<path d="M1399.14 478.523C1402.55 485.043 1398.66 493.383 1390.44 497.133C1382.22 500.893 1372.8 498.643 1369.39 492.123C1365.98 485.603 1369.87 477.263 1378.09 473.513C1386.31 469.753 1395.73 472.003 1399.14 478.523Z" fill="white"/>
<g style="mix-blend-mode:multiply" opacity="0.3">
<path d="M2079.77 402.823C2004.51 465.813 1903.11 494.043 1804.62 491.973C1737.78 490.563 1670.2 476.323 1604.69 489.603C1537.1 503.283 1479.3 544.613 1419.14 578.693L1008.32 587.053C1134.27 577.013 1272.7 573.553 1394.1 530.433C1452.46 509.693 1506.99 482.853 1567.28 470.803C1623.19 459.623 1676.75 457.583 1727.26 462.743C1836.03 473.853 1951.35 463.573 2065.32 409.503C2070.13 407.223 2074.95 404.993 2079.77 402.823Z" fill="#177AEB"/>
</g>
<path d="M941.968 558.122L886.338 564.382L882.818 564.772L882.668 564.792L-81.4022 535.892L-82.6622 535.392L-101.472 527.892V415.152C-47.2522 411.112 5.28783 404.002 59.9278 407.332C122.218 411.132 176.708 424.822 222.818 443.812C322.138 484.702 434.978 510.182 556.328 493.132C655.218 479.232 748.608 490.322 941.968 558.122Z" fill="#E5F7FE"/>
<path d="M887.978 564.933L882.818 564.773L-82.6622 535.393L-101.472 534.823V427.553C-49.5322 424.773 1.45783 419.523 53.0878 425.593C109.718 432.253 161.288 446.873 207.728 467.403C307.728 511.603 420.568 537.483 545.678 521.313C550.968 520.633 556.228 520.003 561.488 519.433C658.258 508.903 739.168 514.763 886.338 564.383C886.888 564.563 887.428 564.743 887.978 564.933Z" fill="#177AEB"/>
<path d="M433.317 515.233C450.818 515.019 464.887 505.207 464.742 493.317C464.597 481.427 450.292 471.962 432.791 472.176C415.291 472.39 401.222 482.202 401.367 494.092C401.512 505.981 415.817 515.447 433.317 515.233Z" fill="white"/>
<path d="M452.808 401.243C453.848 407.413 448.508 413.123 440.888 414.003C433.258 414.883 426.228 410.593 425.188 404.423C424.148 398.253 429.488 392.543 437.108 391.663C444.738 390.783 451.768 395.073 452.808 401.243Z" fill="white"/>
<path d="M276.67 474.369C287.941 474.231 296.988 466.728 296.876 457.611C296.765 448.493 287.538 441.214 276.266 441.351C264.995 441.489 255.948 448.992 256.06 458.109C256.171 467.227 265.398 474.506 276.67 474.369Z" fill="#E5F7FE"/>
<path d="M324.952 447.81C331.556 447.729 336.858 443.33 336.792 437.984C336.727 432.639 331.32 428.371 324.715 428.451C318.11 428.532 312.809 432.931 312.874 438.277C312.94 443.622 318.347 447.891 324.952 447.81Z" fill="white"/>
<g style="mix-blend-mode:multiply" opacity="0.3">
<path d="M561.488 519.433C470.438 556.053 365.278 551.543 272.258 519.113C209.128 497.103 149.268 462.673 82.8578 455.033C53.4278 451.643 -18.9222 456.263 -101.472 458.253V427.553C-49.5322 424.773 1.45783 419.523 53.0878 425.593C109.718 432.253 161.288 446.873 207.728 467.403C307.728 511.603 420.568 537.483 545.678 521.313C550.968 520.633 556.228 520.003 561.488 519.433Z" fill="#177AEB"/>
</g>
</g>
<defs>
<clipPath id="clip0_4_468">
<rect width="2000" height="540" fill="white"/>
</clipPath>
</defs>
</svg>
